<?xml version="1.0" encoding="UTF-8" standalone="no"?>
<!-- Created with Inkscape (http://www.inkscape.org/) -->

<svg
   xmlns:dc="http://purl.org/dc/elements/1.1/"
   xmlns:cc="http://creativecommons.org/ns#"
   xmlns:rdf="http://www.w3.org/1999/02/22-rdf-syntax-ns#"
   xmlns:svg="http://www.w3.org/2000/svg"
   xmlns="http://www.w3.org/2000/svg"
   xmlns:sodipodi="http://sodipodi.sourceforge.net/DTD/sodipodi-0.dtd"
   xmlns:inkscape="http://www.inkscape.org/namespaces/inkscape"
   version="1.1"
   width="411.61499"
   height="402.35498"
   viewBox="0 0 329.29201 321.88397"
   id="svg2"
   style="fill-rule:evenodd"
   inkscape:version="0.48.3.1 r9886"
   sodipodi:docname="лого.svg">
  <sodipodi:namedview
     pagecolor="#ffffff"
     bordercolor="#666666"
     borderopacity="1"
     objecttolerance="10"
     gridtolerance="10"
     guidetolerance="10"
     inkscape:pageopacity="0"
     inkscape:pageshadow="2"
     inkscape:window-width="1366"
     inkscape:window-height="712"
     id="namedview46"
     showgrid="false"
     fit-margin-top="0"
     fit-margin-left="0"
     fit-margin-right="0"
     fit-margin-bottom="0"
     inkscape:zoom="0.89702926"
     inkscape:cx="23.543878"
     inkscape:cy="277.95824"
     inkscape:window-x="0"
     inkscape:window-y="27"
     inkscape:window-maximized="1"
     inkscape:current-layer="svg2" />
  <metadata
     id="metadata96">
    <rdf:RDF>
      <cc:Work
         rdf:about="">
        <dc:format>image/svg+xml</dc:format>
        <dc:type
           rdf:resource="http://purl.org/dc/dcmitype/StillImage" />
        <dc:title />
      </cc:Work>
    </rdf:RDF>
  </metadata>
  <defs
     id="defs94" />
  <g
     transform="translate(-142.599,-120.47104)"
     id="g10">
    <path
       d="m 423.079,318.133 -48.783,-28.212 48.783,-28.211 48.784,28.211 -48.784,28.212 z"
       id="path12"
       style="fill:#ffd435;stroke:none"
       inkscape:connector-curvature="0" />
    <path
       d="m 422.919,261.568 -48.783,-28.212 48.783,-28.212 48.783,28.212 -48.783,28.212 z"
       id="path14"
       style="fill:#454545;stroke:#454545;stroke-width:0.21600001"
       inkscape:connector-curvature="0" />
    <path
       d="m 422.919,261.568 -0.041,56.354 -48.824,-28.142 0.041,-56.353 48.824,28.141 z"
       id="path16"
       style="fill:#2c2c2b;stroke:#2c2c2b;stroke-width:0.21600001"
       inkscape:connector-curvature="0" />
    <path
       d="m 422.919,261.568 0.041,56.354 48.823,-28.142 -0.04,-56.353 -48.824,28.141 z"
       id="path18"
       style="fill:#1f211d;stroke:#1f211d;stroke-width:0.21600001"
       inkscape:connector-curvature="0" />
    <path
       d="m 240.555,234.377 -48.783,-28.212 48.783,-28.212 48.783,28.212 -48.783,28.212 z"
       id="path20"
       style="fill:#ffd435;stroke:none"
       inkscape:connector-curvature="0" />
    <path
       d="M 240.395,177.812 191.612,149.6 240.395,121.388 289.178,149.6 240.395,177.812 z"
       id="path22"
       style="fill:#454545;stroke:#454545;stroke-width:0.21600001"
       inkscape:connector-curvature="0" />
    <path
       d="m 240.395,177.812 -0.041,56.353 -48.824,-28.141 0.041,-56.354 48.824,28.142 z"
       id="path24"
       style="fill:#2c2c2b;stroke:#2c2c2b;stroke-width:0.21600001"
       inkscape:connector-curvature="0" />
    <path
       d="m 240.395,177.812 0.04,56.353 48.824,-28.141 -0.041,-56.354 -48.823,28.142 z"
       id="path26"
       style="fill:#1f211d;stroke:#1f211d;stroke-width:0.21600001"
       inkscape:connector-curvature="0" />
    <path
       d="m 325.513,149.003 0.04,56.353 48.824,-28.141 -0.041,-56.354 -48.823,28.142 z"
       id="path28"
       style="fill:#eb8d29;stroke:#f39629;stroke-width:0.21600001"
       inkscape:connector-curvature="0" />
    <path
       d="m 374.095,177.003 -48.783,-28.212 48.783,-28.212 48.783,28.212 -48.783,28.212 z"
       id="path30"
       style="fill:#f9b83a;stroke:#f9b83a;stroke-width:0.21600001"
       inkscape:connector-curvature="0" />
    <path
       d="m 374.095,177.003 -0.04,56.353 -48.824,-28.141 0.04,-56.354 48.824,28.142 z"
       id="path32"
       style="fill:#f6a72d;stroke:#f6a72d;stroke-width:0.21600001"
       inkscape:connector-curvature="0" />
    <path
       d="m 374.095,177.003 0.041,56.353 48.824,-28.141 -0.041,-56.354 -48.824,28.142 z"
       id="path34"
       style="fill:#eb8d29;stroke:#eb8d29;stroke-width:0.21600001"
       inkscape:connector-curvature="0" />
    <path
       d="m 191.731,318.942 -48.783,-28.212 48.783,-28.212 48.784,28.212 -48.784,28.212 z"
       id="path36"
       style="fill:#ffd435;stroke:none"
       inkscape:connector-curvature="0" />
    <path
       d="m 191.571,262.377 -48.783,-28.212 48.783,-28.212 48.783,28.212 -48.783,28.212 z"
       id="path38"
       style="fill:#f9b83a;stroke:#f9b83a;stroke-width:0.21600001"
       inkscape:connector-curvature="0" />
    <path
       d="m 191.571,262.377 -0.041,56.353 -48.823,-28.141 0.04,-56.353 48.824,28.141 z"
       id="path40"
       style="fill:#f6a72d;stroke:#f6a72d;stroke-width:0.21600001"
       inkscape:connector-curvature="0" />
    <path
       d="m 191.571,262.377 0.041,56.353 48.824,-28.141 -0.041,-56.353 -48.824,28.141 z"
       id="path42"
       style="fill:#eb8d29;stroke:#eb8d29;stroke-width:0.21600001"
       inkscape:connector-curvature="0" />
    <path
       d="m 160.703,357.79 0.041,56.353 48.823,-28.141 -0.04,-56.354 -48.824,28.142 z"
       id="path44"
       style="fill:#eb8d29;stroke:#f39629;stroke-width:0.21600001"
       inkscape:connector-curvature="0" />
    <path
       d="m 209.286,385.79 -48.784,-28.212 48.784,-28.212 48.783,28.212 -48.783,28.212 z"
       id="path46"
       style="fill:#f9b83a;stroke:#f9b83a;stroke-width:0.21600001"
       inkscape:connector-curvature="0" />
    <path
       d="m 209.286,385.79 -0.041,56.354 -48.824,-28.142 0.041,-56.353 48.824,28.141 z"
       id="path48"
       style="fill:#f6a72d;stroke:#f6a72d;stroke-width:0.21600001"
       inkscape:connector-curvature="0" />
    <path
       d="m 209.286,385.79 0.04,56.354 48.824,-28.142 -0.041,-56.353 -48.823,28.141 z"
       id="path50"
       style="fill:#eb8d29;stroke:#eb8d29;stroke-width:0.21600001"
       inkscape:connector-curvature="0" />
    <path
       d="m 306.933,272.942 -48.783,-28.212 48.783,-28.212 48.784,28.212 -48.784,28.212 z"
       id="path52"
       style="fill:#ffd435;stroke:none"
       inkscape:connector-curvature="0" />
    <path
       d="m 306.933,272.942 -0.04,56.354 -48.824,-28.142 0.041,-56.353 48.823,28.141 z"
       id="path54"
       style="fill:#f6a72d;stroke:none"
       inkscape:connector-curvature="0" />
    <path
       d="m 306.933,272.942 0.041,56.354 48.824,-28.142 -0.041,-56.353 -48.824,28.141 z"
       id="path56"
       style="fill:#eb8d29;stroke:#f39629;stroke-width:0.21600001"
       inkscape:connector-curvature="0" />
    <path
       d="m 306.773,216.377 -48.783,-28.212 48.783,-28.212 48.783,28.212 -48.783,28.212 z"
       id="path58"
       style="fill:#ffd435;stroke:#ffd435;stroke-width:0.21600001"
       inkscape:connector-curvature="0" />
    <path
       d="m 306.773,216.377 -0.041,56.354 -48.823,-28.142 0.04,-56.353 48.824,28.141 z"
       id="path60"
       style="fill:#fdca1a;stroke:#fdca1a;stroke-width:0.21600001"
       inkscape:connector-curvature="0" />
    <path
       d="m 306.773,216.377 0.041,56.354 48.824,-28.142 -0.041,-56.353 -48.824,28.141 z"
       id="path62"
       style="fill:#fac313;stroke:#fac313;stroke-width:0.21600001"
       inkscape:connector-curvature="0" />
    <path
       d="m 355.516,300.943 -48.783,-28.212 48.783,-28.212 48.783,28.212 -48.783,28.212 z"
       id="path64"
       style="fill:#f9b83a;stroke:#f9b83a;stroke-width:0.21600001"
       inkscape:connector-curvature="0" />
    <path
       d="m 355.516,300.943 -0.041,56.353 -48.823,-28.141 0.04,-56.354 48.824,28.142 z"
       id="path66"
       style="fill:#f6a72d;stroke:#f6a72d;stroke-width:0.21600001"
       inkscape:connector-curvature="0" />
    <path
       d="m 355.516,300.943 0.041,56.353 48.824,-28.141 -0.041,-56.354 -48.824,28.142 z"
       id="path68"
       style="fill:#eb8d29;stroke:#eb8d29;stroke-width:0.21600001"
       inkscape:connector-curvature="0" />
    <path
       d="m 258.149,301.154 -48.783,-28.212 48.783,-28.212 48.784,28.212 -48.784,28.212 z"
       id="path70"
       style="fill:#454545;stroke:#454545;stroke-width:0.21600001"
       inkscape:connector-curvature="0" />
    <path
       d="m 258.15,301.154 -0.041,56.353 -48.824,-28.141 0.041,-56.354 48.824,28.142 z"
       id="path72"
       style="fill:#2c2c2b;stroke:#2c2c2b;stroke-width:0.21600001"
       inkscape:connector-curvature="0" />
    <path
       d="m 258.149,301.154 0.041,56.353 48.824,-28.141 -0.041,-56.354 -48.824,28.142 z"
       id="path74"
       style="fill:#1f211d;stroke:#1f211d;stroke-width:0.21600001"
       inkscape:connector-curvature="0" />
    <path
       d="m 307.174,442.355 -48.783,-28.212 48.783,-28.212 48.784,28.212 -48.784,28.212 z"
       id="path76"
       style="fill:#ffd435;stroke:none"
       inkscape:connector-curvature="0" />
    <path
       d="m 307.014,385.79 -48.783,-28.212 48.783,-28.212 48.783,28.212 -48.783,28.212 z"
       id="path78"
       style="fill:#ffd435;stroke:#ffd435;stroke-width:0.21600001"
       inkscape:connector-curvature="0" />
    <path
       d="m 307.014,385.79 -0.041,56.354 -48.824,-28.142 0.041,-56.353 48.824,28.141 z"
       id="path80"
       style="fill:#fdca1a;stroke:#fdca1a;stroke-width:0.21600001"
       inkscape:connector-curvature="0" />
    <path
       d="m 307.014,385.79 0.041,56.354 48.823,-28.142 -0.04,-56.353 -48.824,28.141 z"
       id="path82"
       style="fill:#fac313;stroke:#fac313;stroke-width:0.21600001"
       inkscape:connector-curvature="0" />
    <path
       d="m 404.741,442.355 -48.784,-28.212 48.784,-28.212 48.783,28.212 -48.783,28.212 z"
       id="path84"
       style="fill:#ffd435;stroke:none"
       inkscape:connector-curvature="0" />
    <path
       d="m 404.58,385.79 -48.783,-28.212 48.783,-28.212 48.783,28.212 -48.783,28.212 z"
       id="path86"
       style="fill:#ffd435;stroke:#ffd435;stroke-width:0.21600001"
       inkscape:connector-curvature="0" />
    <path
       d="m 404.58,385.79 -0.04,56.354 -48.824,-28.142 0.04,-56.353 48.824,28.141 z"
       id="path88"
       style="fill:#fdca1a;stroke:#fdca1a;stroke-width:0.21600001"
       inkscape:connector-curvature="0" />
    <path
       d="m 404.58,385.79 0.041,56.354 48.824,-28.142 -0.041,-56.353 -48.824,28.141 z"
       id="path90"
       style="fill:#fac313;stroke:#fac313;stroke-width:0.21600001"
       inkscape:connector-curvature="0" />
  </g>
</svg>
